HIERARCHY
ROOT joint_0
{
	OFFSET 0.000000 0.000000 0.000000
	CHANNELS 6 Xposition Yposition Zposition Zrotation Yrotation Xrotation 
	JOINT joint_1
	{
		OFFSET 6.590088 -1.122192 114.019043
		CHANNELS 3 Zrotation Yrotation Xrotation
		JOINT joint_2
		{
			OFFSET -5.956055 -0.820435 104.151001
			CHANNELS 3 Zrotation Yrotation Xrotation
			JOINT joint_3
			{
				OFFSET -7.343506 -1.103027 103.942993
				CHANNELS 3 Zrotation Yrotation Xrotation
				JOINT joint_4
				{
					OFFSET 3.109131 -2.857056 147.715942
					CHANNELS 3 Zrotation Yrotation Xrotation
					JOINT joint_5
					{
						OFFSET 28.592285 -2.852295 87.703979
						CHANNELS 3 Zrotation Yrotation Xrotation
						End Site
						{
							OFFSET 0.000000 0.000000 0.000000
						}
					}
				}
				JOINT joint_6
				{
					OFFSET -0.332520 -33.687378 82.401978
					CHANNELS 3 Zrotation Yrotation Xrotation
					JOINT joint_7
					{
						OFFSET -7.397461 -168.719177 -22.750977
						CHANNELS 3 Zrotation Yrotation Xrotation
						JOINT joint_8
						{
							OFFSET 17.065918 -24.903137 -272.721069
							CHANNELS 3 Zrotation Yrotation Xrotation
							JOINT joint_9
							{
								OFFSET 33.311279 -37.031616 -278.192993
								CHANNELS 3 Zrotation Yrotation Xrotation
								End Site
								{
									OFFSET 0.000000 0.000000 0.000000
								}
							}
						}
					}
				}
				JOINT joint_10
				{
					OFFSET 3.914307 30.461670 83.552979
					CHANNELS 3 Zrotation Yrotation Xrotation
					JOINT joint_11
					{
						OFFSET 15.543701 166.845459 -30.963013
						CHANNELS 3 Zrotation Yrotation Xrotation
						JOINT joint_12
						{
							OFFSET 35.734863 35.017700 -269.786011
							CHANNELS 3 Zrotation Yrotation Xrotation
							JOINT joint_13
							{
								OFFSET 70.506592 13.977783 -273.320007
								CHANNELS 3 Zrotation Yrotation Xrotation
								End Site
								{
									OFFSET 0.000000 0.000000 0.000000
								}
							}
						}
					}
				}
			}
		}
	}
	JOINT joint_14
	{
		OFFSET -0.314697 -95.093994 -116.004028
		CHANNELS 3 Zrotation Yrotation Xrotation
		JOINT joint_15
		{
			OFFSET -22.490723 2.017883 -455.510986
			CHANNELS 3 Zrotation Yrotation Xrotation
			JOINT joint_16
			{
				OFFSET -46.427490 7.144104 -496.360985
				CHANNELS 3 Zrotation Yrotation Xrotation
				JOINT joint_17
				{
					OFFSET 209.055420 -37.122803 -85.191002
					CHANNELS 3 Zrotation Yrotation Xrotation
					End Site
					{
						OFFSET 0.000000 0.000000 0.000000
					}
				}
			}
		}
	}
	JOINT joint_18
	{
		OFFSET 5.652832 94.642578 -116.244019
		CHANNELS 3 Zrotation Yrotation Xrotation
		JOINT joint_19
		{
			OFFSET -12.379883 -7.332642 -455.843994
			CHANNELS 3 Zrotation Yrotation Xrotation
			JOINT joint_20
			{
				OFFSET -45.227051 -8.172241 -496.457985
				CHANNELS 3 Zrotation Yrotation Xrotation
				JOINT joint_21
				{
					OFFSET 210.522949 -11.530396 -88.809004
					CHANNELS 3 Zrotation Yrotation Xrotation
					End Site
					{
						OFFSET 0.000000 0.000000 0.000000
					}
				}
			}
		}
	}
}
MOTION
Frames: 14
Frame Time: 0.016667
-2666.299561 937.271973 1209.489014 4.853990 1.411302 0.922831 -0.938451 2.124521 -0.838194 -0.775077 -0.310963 0.188780 -0.760557 0.450925 -0.091103 0.070700 -0.842422 -0.146375 0.000000 0.000000 0.000000 -3.542883 11.864365 -0.641722 0.694026 10.831387 -9.095752 5.944620 -89.646674 7.532127 0.000000 0.000000 0.000000 6.510644 8.533506 4.602198 5.246026 5.241348 7.358293 -6.786424 -84.868555 -15.957413 0.000000 0.000000 0.000000 -3.346516 -0.816829 -2.602909 -3.423233 8.336398 -1.561742 -3.734635 6.716452 -0.283284 0.000000 0.000000 0.000000 0.155434 -13.814311 2.274280 -0.585771 26.207068 -4.180035 0.027704 6.702760 0.378363 0.000000 0.000000 0.000000 
-2657.732666 936.044495 1211.097046 5.050038 1.767824 0.817995 -0.774652 2.199018 -0.780393 -0.574922 -0.337382 0.208286 -0.554706 0.458656 -0.136724 0.040853 -1.007472 -0.037941 0.000000 0.000000 0.000000 -3.549867 10.015942 -0.987433 -0.291428 9.394277 -9.901100 -174.341364 -89.684335 -168.055926 0.000000 0.000000 0.000000 5.353660 6.736806 3.854975 6.184444 3.649920 8.108966 -6.817753 -87.181859 -17.770020 0.000000 0.000000 0.000000 -3.131240 -0.852035 -2.352742 -3.199537 8.494494 -1.751435 -3.554054 7.285081 -0.105125 0.000000 0.000000 0.000000 0.321000 -15.804110 2.882406 -0.588315 28.729579 -4.910008 0.230056 6.690241 0.455468 0.000000 0.000000 0.000000 
-2648.725342 934.968384 1211.833984 5.170670 2.192515 0.751033 -0.620421 2.239461 -0.721872 -0.399370 -0.358524 0.216047 -0.374527 0.474002 -0.167816 0.034063 -1.268210 -0.001024 0.000000 0.000000 0.000000 -3.486480 8.669441 -1.156924 -1.078815 8.400726 -10.427048 -174.647382 -89.483278 -164.836411 0.000000 0.000000 0.000000 4.468564 5.129504 3.169845 6.828756 2.300527 8.489953 -6.912798 -88.534981 -19.317126 0.000000 0.000000 0.000000 -2.901147 -0.998166 -2.151221 -2.963674 8.795889 -1.930215 -3.357191 7.568380 0.027709 0.000000 0.000000 0.000000 0.361299 -17.574532 3.339399 -0.663784 29.880426 -5.308444 0.248841 6.285136 0.437836 0.000000 0.000000 0.000000 
-2639.218750 933.943665 1211.725952 5.150182 2.664873 0.730919 -0.473882 2.357490 -0.607194 -0.247895 -0.399534 0.168715 -0.215329 0.510498 -0.168105 0.068439 -1.682338 -0.091265 0.000000 0.000000 0.000000 -3.302264 8.389275 -1.141140 -1.354831 8.233187 -10.331868 -174.821969 -89.498913 -164.321839 0.000000 0.000000 0.000000 3.980652 3.871875 2.652666 6.966191 1.374871 8.149346 -7.198657 -88.744868 -20.289995 0.000000 0.000000 0.000000 -2.640796 -1.277519 -2.006768 -2.696213 9.303463 -2.112215 -3.123990 7.613379 0.131486 0.000000 0.000000 0.000000 0.205665 -18.995241 3.687475 -0.831002 29.116134 -5.364251 -0.043039 5.281715 0.265588 0.000000 0.000000 0.000000 
-2629.272705 933.070312 1210.745972 5.029408 3.191162 0.730426 -0.325916 2.471003 -0.467799 -0.112835 -0.438767 0.092568 -0.073646 0.538688 -0.148439 0.124901 -2.195083 -0.251744 0.000000 0.000000 0.000000 -3.040315 8.752919 -1.064077 -1.317742 8.585415 -9.817475 -174.893941 -89.923281 -165.162633 0.000000 0.000000 0.000000 3.722362 2.957762 2.276436 6.785702 0.830848 7.451098 -7.578006 -88.211982 -20.947615 0.000000 0.000000 0.000000 -2.369737 -1.651147 -1.898039 -2.415348 9.950259 -2.284063 -2.870680 7.389734 0.194560 0.000000 0.000000 0.000000 -0.032693 -20.122434 3.931061 -1.005952 26.838809 -5.068572 -0.450266 4.198240 0.043121 0.000000 0.000000 0.000000 
-2619.137207 932.763245 1208.875977 4.878579 3.742039 0.759716 -0.193366 2.392188 -0.414842 -0.011052 -0.407514 0.070914 0.024821 0.528731 -0.118776 0.181908 -2.594160 -0.411455 0.000000 0.000000 0.000000 -2.829500 9.266620 -1.097055 -1.356658 9.056950 -9.658534 -175.054393 -89.881233 -165.599296 0.000000 0.000000 0.000000 3.665438 2.461903 2.116912 6.713769 0.556856 7.113115 -7.801704 -88.078419 -21.495647 0.000000 0.000000 0.000000 -2.088282 -2.028130 -1.919712 -2.133163 10.672502 -2.334101 -2.597026 6.746133 0.189424 0.000000 0.000000 0.000000 -0.290920 -21.001107 3.942153 -1.173399 23.540078 -4.289287 -0.865636 4.370374 -0.116391 0.000000 0.000000 0.000000 
-2608.546631 933.297913 1206.112061 4.741260 4.382765 0.876558 -0.101415 1.969295 -0.541028 0.032558 -0.265122 0.154218 0.049385 0.467758 -0.079905 0.233790 -2.798607 -0.550072 0.000000 0.000000 0.000000 -2.752871 9.895677 -1.322074 -1.596456 9.623198 -10.268397 -175.385410 -88.978761 -164.849178 0.000000 0.000000 0.000000 3.912395 2.607390 2.279589 6.901480 0.668862 7.494832 -7.751016 -88.864416 -21.887888 0.000000 0.000000 0.000000 -1.813898 -2.397044 -2.138602 -1.869378 11.383834 -2.264732 -2.318255 5.566049 0.089021 0.000000 0.000000 0.000000 -0.765246 -21.432063 3.527285 -1.543897 18.444524 -2.687364 -1.500178 6.948794 -0.239221 0.000000 0.000000 0.000000 
-2597.766602 934.399841 1202.458008 4.312850 4.929032 0.842624 0.039774 1.621601 -0.432381 0.129640 -0.212504 0.128548 0.146275 0.389969 -0.036087 0.283076 -2.885487 -0.677762 0.000000 0.000000 0.000000 -2.732860 10.700309 -1.586016 -1.905406 10.320649 -11.332056 -175.828105 -87.582679 -163.738873 0.000000 0.000000 0.000000 4.354776 3.160557 2.615789 7.205651 1.043315 8.304451 172.462043 -89.928824 157.849610 0.000000 0.000000 0.000000 -1.458315 -2.657843 -2.294514 -1.519468 12.150765 -2.134041 -1.953939 4.063057 -0.035080 0.000000 0.000000 0.000000 -1.421097 -21.205787 3.158687 -2.190900 11.904407 -0.437295 -2.280073 11.574720 -0.317454 0.000000 0.000000 0.000000 
-2587.836426 935.656555 1197.913940 3.522483 5.163383 0.471216 0.289781 1.591162 0.116025 0.344693 -0.300464 -0.086783 0.390987 0.322358 0.005353 0.321348 -2.873806 -0.771671 0.000000 0.000000 0.000000 -2.646862 11.401674 -1.787677 -2.259620 10.894540 -12.483284 -176.331153 -85.875376 -162.941245 0.000000 0.000000 0.000000 4.642684 3.477811 2.886422 7.626811 1.246324 9.159078 172.721984 -88.626504 157.362130 0.000000 0.000000 0.000000 -0.961861 -2.765948 -2.254674 -1.036527 13.152546 -1.832078 -1.462112 2.474627 -0.124534 0.000000 0.000000 0.000000 -1.755401 -20.918623 3.340669 -2.655755 6.728686 1.514992 -2.710323 16.051590 -0.263475 0.000000 0.000000 0.000000 
-2579.005127 936.961792 1191.822998 2.649909 5.155300 -0.054494 0.592406 1.502465 0.674220 0.620952 -0.292570 -0.235818 0.690866 0.239841 0.062578 0.344733 -2.717364 -0.823167 0.000000 0.000000 0.000000 -2.423070 11.970824 -1.995452 -2.706327 11.298264 -13.621666 -176.946234 -83.766435 -162.665028 0.000000 0.000000 0.000000 4.634176 3.296138 3.100920 8.245880 1.125678 9.948978 173.020633 -87.247815 156.260310 0.000000 0.000000 0.000000 -0.359109 -2.776894 -2.300558 -0.487205 14.413160 -1.139653 -0.874772 0.563551 -0.236241 0.000000 0.000000 0.000000 -1.320034 -21.344185 3.824916 -2.366722 4.309269 2.671050 -2.367905 18.867542 0.016104 0.000000 0.000000 0.000000 
-2571.022461 938.423889 1184.842041 1.843266 5.020819 -0.574722 0.873476 1.304845 1.078888 0.884173 -0.189530 -0.275150 0.964683 0.156218 0.126773 0.356950 -2.465840 -0.843139 0.000000 0.000000 0.000000 -2.126069 12.436571 -2.181647 -3.211153 11.554865 -14.798963 -177.636261 -81.403409 -162.729604 0.000000 0.000000 0.000000 4.469139 2.834469 3.289876 9.012229 0.829244 10.707523 173.398968 -85.752591 154.896715 0.000000 0.000000 0.000000 0.276790 -2.809878 -2.517902 0.064224 15.907381 -0.160141 -0.253184 -1.517231 -0.367201 0.000000 0.000000 0.000000 -0.464539 -22.137057 4.318161 -1.602403 3.394806 3.322524 -1.570133 20.582435 0.417847 0.000000 0.000000 0.000000 
-2564.180176 939.954834 1178.942017 1.255313 4.816824 -0.978643 1.043088 1.284766 1.331815 1.048965 -0.151935 -0.298211 1.138879 0.140835 0.155256 0.364032 -2.279124 -0.848910 0.000000 0.000000 0.000000 -1.829110 12.595921 -2.187102 -3.621671 11.533225 -15.763732 -178.162033 -79.307809 -163.157154 0.000000 0.000000 0.000000 4.219802 2.193268 3.345384 9.714014 0.419514 11.136033 173.761405 -84.345592 154.013353 0.000000 0.000000 0.000000 0.825869 -3.103325 -2.839344 0.525235 17.780111 0.837441 0.300265 -3.103005 -0.438851 0.000000 0.000000 0.000000 0.219373 -22.674876 4.777691 -0.906083 3.204410 3.505958 -0.863536 21.038977 0.720459 0.000000 0.000000 0.000000 
-2558.823730 941.771912 1174.702026 1.045380 4.503743 -1.178103 1.015624 1.601247 1.320461 1.034682 -0.247371 -0.294538 1.132380 0.263076 0.137417 0.365829 -2.216712 -0.836375 0.000000 0.000000 0.000000 -1.500921 12.238349 -1.914043 -3.883731 11.089596 -16.411545 -178.391240 -77.616575 -164.035645 0.000000 0.000000 0.000000 3.840196 1.352050 3.140568 10.261430 -0.132336 11.067865 174.054658 -83.047493 154.091329 0.000000 0.000000 0.000000 1.187882 -3.779583 -3.299983 0.817425 20.287968 1.749051 0.724641 -3.953064 -0.431722 0.000000 0.000000 0.000000 0.407908 -22.663669 5.190621 -0.534727 3.959436 3.085031 -0.510989 19.370754 0.784638 0.000000 0.000000 0.000000 
-2554.606934 943.658875 1171.543945 1.078536 4.146495 -1.206317 0.886945 2.065101 1.032517 0.912662 -0.403184 -0.222225 1.004120 0.461568 0.092973 0.358395 -2.223739 -0.792228 0.000000 0.000000 0.000000 -1.184493 11.526426 -1.486055 -4.033727 10.351689 -16.795991 -178.409264 -76.237453 -165.220359 0.000000 0.000000 0.000000 3.385128 0.337564 2.791423 10.678653 -0.814433 10.705184 174.274159 -81.927888 154.666776 0.000000 0.000000 0.000000 1.441960 -4.709596 -3.941346 1.021180 23.150343 2.687219 1.128357 -4.233596 -0.333464 0.000000 0.000000 0.000000 0.351961 -22.411620 5.520322 -0.297564 5.508695 2.253768 -0.297238 16.368585 0.728475 0.000000 0.000000 0.000000 
